<svg width="502" height="132" viewBox="0 0 502 132" fill="none" xmlns="http://www.w3.org/2000/svg">
<path fill-rule="evenodd" clip-rule="evenodd" d="M467.035 100.1C460.188 100.1 454.078 98.7133 448.705 95.94C443.418 93.1667 439.258 89.18 436.225 83.98C433.191 78.6933 431.675 72.3667 431.675 65C431.675 57.46 433.191 51.0467 436.225 45.76C439.345 40.3867 443.548 36.3133 448.835 33.54C454.121 30.68 460.101 29.25 466.775 29.25C473.535 29.25 479.515 30.7233 484.715 33.67C489.915 36.53 494.031 40.6467 497.065 46.02C500.098 51.3067 501.615 57.72 501.615 65.26C501.615 72.6267 500.141 78.91 497.195 84.11C494.335 89.31 490.305 93.2967 485.105 96.07C479.905 98.7567 473.881 100.1 467.035 100.1ZM466.645 80.99C470.285 80.99 473.188 80.21 475.355 78.65C477.521 77.09 479.038 75.0967 479.905 72.67C480.858 70.2433 481.335 67.73 481.335 65.13C481.335 62.53 480.858 59.93 479.905 57.33C479.038 54.73 477.521 52.6067 475.355 50.96C473.275 49.2267 470.371 48.36 466.645 48.36C463.005 48.36 460.101 49.2267 457.935 50.96C455.768 52.6067 454.208 54.73 453.255 57.33C452.301 59.8433 451.825 62.4433 451.825 65.13C451.825 67.73 452.301 70.2867 453.255 72.8C454.295 75.2267 455.855 77.22 457.935 78.78C460.101 80.2533 463.005 80.99 466.645 80.99Z" fill="#1B1B1B"/>
<path fill-rule="evenodd" clip-rule="evenodd" d="M370.726 128.31C375.493 130.13 380.649 131.04 386.196 131.04C395.036 131.04 401.969 129.263 406.996 125.71C412.109 122.243 415.706 117.26 417.786 110.76C419.953 104.347 421.036 96.6332 421.036 87.6199V29.3799H402H399L392.5 29.3799C392.5 29.3799 385.763 29.3799 381.516 29.3799C374.496 29.3799 368.603 31.0266 363.836 34.3199C359.156 37.5265 355.603 41.9032 353.176 47.4499C350.749 52.9099 349.536 58.9766 349.536 65.6499C349.536 71.6299 350.533 77.2632 352.526 82.5499C354.606 87.7499 357.899 91.9532 362.406 95.1599C366.999 98.3665 372.936 99.9699 380.216 99.9699C382.296 99.9699 384.549 99.7099 386.976 99.1899C389.489 98.7565 391.873 97.9332 394.126 96.7199C396.466 95.5065 398.459 93.6432 400.106 91.1299V94.5099C400.106 97.5432 399.716 100.403 398.936 103.09C398.243 105.863 396.856 108.073 394.776 109.72C392.783 111.367 389.836 112.19 385.936 112.19C383.856 112.19 381.949 111.887 380.216 111.28C378.483 110.76 377.009 109.98 375.796 108.94C374.669 107.9 373.846 106.643 373.326 105.17H352.396C353.523 111.237 355.689 116.177 358.896 119.99C362.103 123.803 366.046 126.577 370.726 128.31ZM393.736 79.1699C391.483 80.7299 388.579 81.5099 385.026 81.5099C381.386 81.5099 378.439 80.7299 376.186 79.1699C374.019 77.6099 372.459 75.5732 371.506 73.0599C370.553 70.5466 370.076 67.9032 370.076 65.1299C370.076 62.5299 370.509 59.9299 371.376 57.3299C372.329 54.6432 373.933 52.3899 376.186 50.5699C378.439 48.7499 381.516 47.8399 385.416 47.8399C388.883 47.8399 400.5 47.9999 400.5 47.9999L400.496 55.9999C400.496 55.9999 400.496 61.4899 400.496 64.6099C400.496 67.5566 399.933 70.3299 398.806 72.9299C397.679 75.5299 395.989 77.6099 393.736 79.1699Z" fill="#1B1B1B"/>
<path d="M272.917 99.06V29.25H292L298 29.25L302.5 29.25L307.237 29.25C307.237 29.25 311.917 29.25 313.737 29.25C320.237 29.25 325.307 30.7233 328.947 33.67C332.674 36.53 335.317 40.3867 336.877 45.24C338.437 50.0933 339.217 55.4233 339.217 61.23V99.06H318.677V63.44C318.677 61.62 318.504 59.8433 318.157 58.11C317.81 56.29 317.204 54.6433 316.337 53.17C315.557 51.61 314.43 50.3967 312.957 49.53C311.484 48.5767 309.577 48.1 307.237 48.1C304.204 48.1 299.5 48.1 299.5 48.1H293.587C293.587 48.1 293.587 61.4467 293.587 64.48V99.06H272.917Z" fill="#1B1B1B"/>
<path fill-rule="evenodd" clip-rule="evenodd" d="M211 97.9999C213.86 98.8665 216.766 99.0599 219.973 99.0599H225.433H233H240.903H259.753V62.2699C259.753 51.6099 257.283 43.4632 252.343 37.8299C247.403 32.1966 239.906 29.3799 229.853 29.3799C226.039 29.3799 222.313 29.8565 218.673 30.8099C215.033 31.6765 211.739 33.0199 208.793 34.8399C205.933 36.6599 203.506 39.0432 201.513 41.9899C199.606 44.8499 198.349 48.3165 197.743 52.3899H218.413C218.759 51.1765 219.409 50.1799 220.363 49.3999C221.403 48.5332 222.659 47.8832 224.133 47.4499C225.693 46.9299 227.339 46.6699 229.073 46.6699C231.499 46.6699 233.536 47.1465 235.183 48.0999C236.829 49.0532 238.043 50.3532 238.823 51.9999C239.689 53.5599 240.123 55.4232 240.123 57.5899H233.623C228.769 57.5899 224.089 57.8065 219.583 58.2399C215.076 58.6732 211.046 59.6265 207.493 61.0999C204.026 62.4865 201.253 64.6532 199.173 67.5999C197.179 70.4599 196.183 74.3599 196.183 79.2999C196.183 82.7666 196.833 85.7999 198.133 88.3999C199.433 90.9999 201.209 93.1666 203.463 94.8999C205.716 96.6332 208.14 97.1332 211 97.9999ZM240.123 84.1099C240.123 84.1099 228.033 84.1099 225.433 84.1099C223.786 84.1099 222.269 83.8499 220.883 83.3299C219.583 82.8099 218.543 82.0732 217.763 81.1199C216.983 80.0799 216.593 78.8232 216.593 77.3499C216.593 75.9632 216.896 74.8366 217.503 73.9699C218.109 73.1032 218.933 72.4532 219.973 72.0199C221.013 71.4999 222.183 71.1532 223.483 70.9799C224.869 70.8066 226.256 70.7199 227.643 70.7199H240.123V74.4999V77.9999V84.1099Z" fill="#1B1B1B"/>
<path d="M147.946 131.04C142.66 131.04 137.46 130.347 132.346 128.96C127.32 127.573 122.51 125.32 117.917 122.2L124.416 105.56C127.016 107.467 130.006 108.983 133.386 110.11C136.853 111.237 140.796 111.8 145.216 111.8C151.716 111.8 156.613 110.413 159.906 107.64C163.2 104.867 164.846 100.62 164.846 94.9V92.82C163.373 94.64 161.553 96.07 159.386 97.11C157.22 98.15 154.966 98.8867 152.626 99.32C150.286 99.84 147.946 100.1 145.606 100.1C139.02 100.1 133.733 98.7134 129.746 95.94C125.76 93.1667 122.856 89.3534 121.036 84.5C119.216 79.6467 118.307 74.1867 118.307 68.12V30.55H138.716V64.09C138.716 65.9967 138.846 67.9467 139.106 69.94C139.366 71.9334 139.93 73.84 140.796 75.66C141.663 77.3934 142.963 78.8234 144.696 79.9501C146.516 80.9901 148.856 81.51 151.716 81.51C155.616 81.51 158.476 80.5567 160.296 78.65C162.116 76.7434 163.286 74.4034 163.806 71.6301C164.326 68.7701 164.586 65.91 164.586 63.05V30.55H185.256V85.93C185.256 92.6034 184.693 98.6701 183.566 104.13C182.44 109.677 180.49 114.443 177.716 118.43C174.943 122.417 171.13 125.493 166.276 127.66C161.423 129.913 155.313 131.04 147.946 131.04Z" fill="#1B1B1B"/>
<path d="M83.6299 99.06V30.55H104.3V99.06H83.6299ZM94.0299 24.83C90.2166 24.83 87.1399 23.7033 84.7999 21.45C82.5466 19.1967 81.4199 16.25 81.4199 12.61C81.4199 8.88334 82.6333 5.85 85.0599 3.51C87.4866 1.17 90.5199 0 94.1599 0C97.6266 0 100.573 1.12667 103 3.38C105.427 5.63333 106.64 8.66667 106.64 12.48C106.64 16.2067 105.47 19.1967 103.13 21.45C100.79 23.7033 97.7566 24.83 94.0299 24.83Z" fill="#1B1B1B"/>
<path d="M8.32975e-06 77.06V130.06H21.29L21.2902 95.28H36.2402C43.3468 95.28 49.6734 94.11 55.2201 91.77C60.7668 89.3434 65.1434 85.66 68.3501 80.72C71.5568 75.78 73.1601 69.6267 73.1601 62.26C73.1601 54.2867 71.6434 47.96 68.6101 43.28C65.6634 38.6 61.5034 35.22 56.1301 33.14C50.8434 31.06 44.6469 30.02 37.5402 30.02H0L8.32975e-06 49.06H36.5C42.1333 49.06 46.1635 50.6033 48.5901 52.77C51.1035 54.9367 52.3601 58.1 52.3601 62.26C52.3601 66.94 50.8868 70.4933 47.9402 72.92C45.0802 75.3467 41.1963 77.06 36.2563 77.06H8.32975e-06Z" fill="#1B1B1B"/>
</svg>
